<svg width="26" height="26" viewBox="0 0 26 26" fill="none" xmlns="http://www.w3.org/2000/svg">
<path d="M19.5 1H6.5C3.4673 1 1 3.44186 1 6.4433V15.1031C1 18.1045 3.4673 20.5464 6.5 20.5464H7.5C8.05229 20.5464 8.5 20.9941 8.5 21.5464V24.5052C8.5 24.6926 8.60695 24.8639 8.7764 24.9477C8.84715 24.9828 8.92375 25 8.99995 25C9.1062 25 9.21175 24.9665 9.3 24.901L14.9012 20.7434C15.0736 20.6155 15.2826 20.5464 15.4972 20.5464H19.5C22.5327 20.5464 25 18.1045 25 15.1031V6.4433C25 3.44186 22.5327 1 19.5 1ZM24 15.1031C24 17.5588 21.9813 19.5567 19.5 19.5567H15C14.8918 19.5567 14.7866 19.5914 14.7 19.6557L11.096 22.3308C10.4362 22.8206 9.5 22.3496 9.5 21.5278V20.0515C9.5 19.7782 9.27615 19.5567 9 19.5567H6.5C4.0187 19.5567 2 17.5588 2 15.1031V6.4433C2 3.98758 4.0187 1.98969 6.5 1.98969H19.5C21.9813 1.98969 24 3.98758 24 6.4433V15.1031Z" fill="url(#paint0_linear)" stroke="url(#paint1_linear)"/>
<mask id="path-2-inside-1" fill="white">
<path d="M13.7722 12.238C13.7706 12.2364 13.769 12.2349 13.7673 12.2333C13.5787 12.0493 13.3306 11.948 13.0687 11.948C12.8045 11.948 12.5561 12.0509 12.3693 12.2377L11.6699 12.9372L9.56946 10.8405L10.2683 10.1417C10.4551 9.95485 10.558 9.7058 10.558 9.44041C10.558 9.17498 10.455 8.92592 10.2683 8.73917L7.81885 6.28973C7.63205 6.10293 7.38388 6 7.12003 6C6.85618 6 6.60801 6.10288 6.42126 6.28968L4.14497 8.56597C4.03665 8.67424 3.98459 8.82656 4.00399 8.97847C4.01626 9.07403 4.34167 11.3577 7.7472 14.7632C11.1486 18.1697 13.4379 18.4901 13.5337 18.5021C13.5542 18.5047 13.5747 18.5059 13.5951 18.5059C13.7255 18.5059 13.8516 18.4544 13.945 18.361L14.4671 17.8389L16.2149 16.0911C16.4051 15.9042 16.5098 15.6548 16.5098 15.3884C16.5098 15.1219 16.4051 14.8725 16.2148 14.6856L13.7722 12.238ZM15.5159 15.3904L13.4357 17.4707C12.8295 17.3065 11.0128 16.6329 8.4473 14.0636C5.90479 11.5211 5.21042 9.68219 5.03802 9.07249L7.11904 6.98944L9.56852 9.44175L8.51945 10.4909C8.42662 10.5837 8.37446 10.7096 8.37451 10.841C8.37456 10.9723 8.42682 11.0982 8.5198 11.191L11.3206 13.9869C11.514 14.1798 11.827 14.1797 12.0201 13.9866L13.0687 12.9377C13.0708 12.9377 13.073 12.9387 13.0755 12.9409L15.5162 15.3866C15.5168 15.3871 15.5174 15.3877 15.518 15.3884C15.5173 15.389 15.5167 15.3897 15.5159 15.3904Z"/>
</mask>
<path d="M13.7722 12.238C13.7706 12.2364 13.769 12.2349 13.7673 12.2333C13.5787 12.0493 13.3306 11.948 13.0687 11.948C12.8045 11.948 12.5561 12.0509 12.3693 12.2377L11.6699 12.9372L9.56946 10.8405L10.2683 10.1417C10.4551 9.95485 10.558 9.7058 10.558 9.44041C10.558 9.17498 10.455 8.92592 10.2683 8.73917L7.81885 6.28973C7.63205 6.10293 7.38388 6 7.12003 6C6.85618 6 6.60801 6.10288 6.42126 6.28968L4.14497 8.56597C4.03665 8.67424 3.98459 8.82656 4.00399 8.97847C4.01626 9.07403 4.34167 11.3577 7.7472 14.7632C11.1486 18.1697 13.4379 18.4901 13.5337 18.5021C13.5542 18.5047 13.5747 18.5059 13.5951 18.5059C13.7255 18.5059 13.8516 18.4544 13.945 18.361L14.4671 17.8389L16.2149 16.0911C16.4051 15.9042 16.5098 15.6548 16.5098 15.3884C16.5098 15.1219 16.4051 14.8725 16.2148 14.6856L13.7722 12.238ZM15.5159 15.3904L13.4357 17.4707C12.8295 17.3065 11.0128 16.6329 8.4473 14.0636C5.90479 11.5211 5.21042 9.68219 5.03802 9.07249L7.11904 6.98944L9.56852 9.44175L8.51945 10.4909C8.42662 10.5837 8.37446 10.7096 8.37451 10.841C8.37456 10.9723 8.42682 11.0982 8.5198 11.191L11.3206 13.9869C11.514 14.1798 11.827 14.1797 12.0201 13.9866L13.0687 12.9377C13.0708 12.9377 13.073 12.9387 13.0755 12.9409L15.5162 15.3866C15.5168 15.3871 15.5174 15.3877 15.518 15.3884C15.5173 15.389 15.5167 15.3897 15.5159 15.3904Z" fill="url(#paint2_linear)"/>
<path d="M13.7722 12.238L14.48 11.5316L14.4742 11.5258L14.4683 11.5201L13.7722 12.238ZM13.7673 12.2333L13.0691 12.9491L13.0712 12.9512L13.7673 12.2333ZM12.3693 12.2377L11.6622 11.5306L11.6622 11.5306L12.3693 12.2377ZM11.6699 12.9372L10.9634 13.6449L11.6705 14.3508L12.377 13.6443L11.6699 12.9372ZM9.56946 10.8405L8.86236 10.1334L8.15462 10.8411L8.86298 11.5482L9.56946 10.8405ZM10.2683 10.1417L10.9754 10.8488V10.8488L10.2683 10.1417ZM6.42126 6.28968L7.12836 6.99679L7.12846 6.9967L6.42126 6.28968ZM4.14497 8.56597L4.85191 9.27324L4.85208 9.27308L4.14497 8.56597ZM4.00399 8.97847L3.01204 9.10513L3.01213 9.10586L4.00399 8.97847ZM7.7472 14.7632L8.45483 14.0566L8.4543 14.0561L7.7472 14.7632ZM13.5337 18.5021L13.6583 17.5099L13.6578 17.5098L13.5337 18.5021ZM13.945 18.361L14.652 19.0683L14.6522 19.0681L13.945 18.361ZM14.4671 17.8389L13.76 17.1318L13.76 17.1318L14.4671 17.8389ZM16.2149 16.0911L15.5138 15.378L15.5078 15.384L16.2149 16.0911ZM16.2148 14.6856L15.507 15.392L15.5139 15.3988L16.2148 14.6856ZM15.5159 15.3904L14.8336 14.6594L14.821 14.6711L14.8088 14.6833L15.5159 15.3904ZM13.4357 17.4707L13.1743 18.4359L13.7333 18.5873L14.1428 18.1778L13.4357 17.4707ZM8.4473 14.0636L9.15494 13.357L9.1544 13.3565L8.4473 14.0636ZM5.03802 9.07249L4.33057 8.36573L3.91623 8.78047L4.07575 9.34459L5.03802 9.07249ZM7.11904 6.98944L7.82655 6.28274L7.1191 5.57448L6.41159 6.28268L7.11904 6.98944ZM9.56852 9.44175L10.2756 10.1488L10.9823 9.44214L10.276 8.73505L9.56852 9.44175ZM8.51945 10.4909L9.22656 11.198L9.22658 11.198L8.51945 10.4909ZM8.5198 11.191L9.22628 10.4832L9.22596 10.4829L8.5198 11.191ZM11.3206 13.9869L10.6141 14.6946L10.6142 14.6947L11.3206 13.9869ZM12.0201 13.9866L12.7273 14.6936L12.7273 14.6936L12.0201 13.9866ZM13.0687 12.9377V11.9377H12.6544L12.3615 12.2307L13.0687 12.9377ZM13.0755 12.9409L13.7833 12.2345L13.7609 12.2121L13.7371 12.1911L13.0755 12.9409ZM15.5162 15.3866L14.8084 16.093L14.8241 16.1087L14.8405 16.1237L15.5162 15.3866ZM15.518 15.3884L16.2251 16.0955L16.9322 15.3884L16.2251 14.6812L15.518 15.3884ZM14.4683 11.5201C14.4707 11.5224 14.4726 11.5243 14.4714 11.5231C14.471 11.5227 14.4675 11.5193 14.4635 11.5154L13.0712 12.9512C13.0688 12.9489 13.0669 12.947 13.0682 12.9482C13.0685 12.9486 13.072 12.952 13.076 12.9559L14.4683 11.5201ZM14.4656 11.5174C14.0914 11.1525 13.5932 10.948 13.0687 10.948V12.948C13.0701 12.948 13.0692 12.9481 13.0675 12.9474C13.0658 12.9467 13.0664 12.9465 13.0691 12.9491L14.4656 11.5174ZM13.0687 10.948C12.5393 10.948 12.0365 11.1563 11.6622 11.5306L13.0765 12.9448C13.0775 12.9437 13.0762 12.9452 13.0727 12.9467C13.0691 12.9481 13.0672 12.948 13.0687 12.948V10.948ZM11.6622 11.5306L10.9628 12.2301L12.377 13.6443L13.0765 12.9448L11.6622 11.5306ZM12.3764 12.2295L10.2759 10.1327L8.86298 11.5482L10.9634 13.6449L12.3764 12.2295ZM10.2766 11.5476L10.9754 10.8488L9.56118 9.43455L8.86236 10.1334L10.2766 11.5476ZM10.9754 10.8488C11.3507 10.4734 11.558 9.96963 11.558 9.44041H9.55797C9.55797 9.4432 9.55757 9.442 9.55893 9.4387C9.5603 9.43539 9.56183 9.4339 9.56118 9.43455L10.9754 10.8488ZM11.558 9.44041C11.558 8.91108 11.3506 8.40728 10.9754 8.03206L9.56118 9.44627C9.56181 9.44691 9.5603 9.44543 9.55893 9.44212C9.55757 9.43884 9.55797 9.43764 9.55797 9.44041H11.558ZM10.9754 8.03206L8.52596 5.58262L7.11174 6.99684L9.56118 9.44627L10.9754 8.03206ZM8.52596 5.58262C8.15199 5.20866 7.64962 5 7.12003 5V7C7.12118 7 7.11898 7.00008 7.11531 6.99855C7.11165 6.99704 7.11047 6.99557 7.11174 6.99684L8.52596 5.58262ZM7.12003 5C6.59059 5 6.08812 5.2085 5.71406 5.58267L7.12846 6.9967C7.12964 6.99551 7.12838 6.99703 7.12469 6.99856C7.12099 7.00009 7.11881 7 7.12003 7V5ZM5.71415 5.58258L3.43786 7.85886L4.85208 9.27308L7.12836 6.99679L5.71415 5.58258ZM3.43802 7.8587C3.11075 8.18583 2.95343 8.64609 3.01204 9.10513L4.99593 8.85181C5.01575 9.00702 4.96255 9.16266 4.85191 9.27324L3.43802 7.8587ZM3.01213 9.10586C3.05444 9.43526 3.48874 11.919 7.04009 15.4703L8.4543 14.0561C5.1946 10.7964 4.97808 8.7128 4.99584 8.85109L3.01213 9.10586ZM7.03957 15.4698C10.5876 19.0231 13.0785 19.453 13.4097 19.4944L13.6578 17.5098C13.7974 17.5273 11.7096 17.3162 8.45483 14.0566L7.03957 15.4698ZM13.4091 19.4943C13.4721 19.5022 13.5343 19.5059 13.5951 19.5059V17.5059C13.6151 17.5059 13.6363 17.5071 13.6583 17.5099L13.4091 19.4943ZM13.5951 19.5059C13.989 19.5059 14.3699 19.3502 14.652 19.0683L13.2381 17.6537C13.3333 17.5585 13.4619 17.5059 13.5951 17.5059V19.5059ZM14.6522 19.0681L15.1742 18.5459L13.76 17.1318L13.2379 17.6539L14.6522 19.0681ZM15.1742 18.546L16.922 16.7982L15.5078 15.384L13.76 17.1318L15.1742 18.546ZM16.9159 16.8042C17.2969 16.4297 17.5098 15.9235 17.5098 15.3884H15.5098C15.5098 15.3894 15.5097 15.389 15.51 15.3876C15.5102 15.3863 15.5107 15.3845 15.5116 15.3826C15.5124 15.3806 15.5132 15.3791 15.5139 15.3781C15.5146 15.3771 15.5148 15.3771 15.5138 15.378L16.9159 16.8042ZM17.5098 15.3884C17.5098 14.8532 17.297 14.347 16.9158 13.9724L15.5139 15.3988C15.5148 15.3997 15.5146 15.3997 15.5139 15.3987C15.5133 15.3976 15.5124 15.3961 15.5116 15.3942C15.5107 15.3922 15.5102 15.3904 15.51 15.3891C15.5097 15.3877 15.5098 15.3874 15.5098 15.3884H17.5098ZM16.9227 13.9792L14.48 11.5316L13.0644 12.9444L15.507 15.392L16.9227 13.9792ZM14.8088 14.6833L12.7286 16.7636L14.1428 18.1778L16.223 16.0975L14.8088 14.6833ZM13.6971 16.5054C13.2789 16.3922 11.6117 15.8175 9.15494 13.357L7.73967 14.7702C10.4138 17.4484 12.3801 18.2208 13.1743 18.4359L13.6971 16.5054ZM9.1544 13.3565C6.72224 10.9244 6.12233 9.23199 6.00029 8.80039L4.07575 9.34459C4.29852 10.1324 5.08733 12.1179 7.7402 14.7707L9.1544 13.3565ZM5.74547 9.77926L7.82649 7.69621L6.41159 6.28268L4.33057 8.36573L5.74547 9.77926ZM6.41153 7.69614L8.86101 10.1484L10.276 8.73505L7.82655 6.28274L6.41153 7.69614ZM8.8614 8.73466L7.81233 9.78378L9.22658 11.198L10.2756 10.1488L8.8614 8.73466ZM7.81235 9.78376C7.53192 10.0642 7.37436 10.4446 7.37451 10.8413L9.37451 10.8406C9.37456 10.9747 9.32132 11.1032 9.22656 11.198L7.81235 9.78376ZM7.37451 10.8413C7.37466 11.238 7.53249 11.6186 7.81363 11.899L9.22596 10.4829C9.32114 10.5779 9.37446 10.7066 9.37451 10.8406L7.37451 10.8413ZM7.81332 11.8987L10.6141 14.6946L12.0271 13.2791L9.22628 10.4832L7.81332 11.8987ZM10.6142 14.6947C11.198 15.2773 12.1438 15.2773 12.7273 14.6936L11.3129 13.2795C11.5103 13.0821 11.8299 13.0823 12.027 13.279L10.6142 14.6947ZM12.7273 14.6936L13.7759 13.6447L12.3615 12.2307L11.3129 13.2795L12.7273 14.6936ZM13.0687 13.9377C12.718 13.9377 12.4911 13.7589 12.4139 13.6908L13.7371 12.1911C13.6549 12.1185 13.4235 11.9377 13.0687 11.9377V13.9377ZM12.3677 13.6473L14.8084 16.093L16.224 14.6802L13.7833 12.2345L12.3677 13.6473ZM14.8405 16.1237C14.8209 16.1057 14.8063 16.0909 14.803 16.0875C14.802 16.0864 14.8012 16.0856 14.8011 16.0855C14.8006 16.0851 14.8014 16.0859 14.8019 16.0863C14.8031 16.0876 14.8065 16.0911 14.8109 16.0955L16.2251 14.6812C16.2292 14.6853 16.2323 14.6885 16.2332 14.6894C16.2335 14.6897 16.2341 14.6904 16.2335 14.6898C16.2333 14.6895 16.2323 14.6886 16.2312 14.6873C16.2273 14.6834 16.2122 14.668 16.1919 14.6494L14.8405 16.1237ZM14.8109 14.6812C14.8069 14.6853 14.8037 14.6885 14.8027 14.6895C14.8025 14.6897 14.8016 14.6906 14.8022 14.6901C14.8023 14.6899 14.803 14.6892 14.8039 14.6883C14.8073 14.6849 14.8185 14.6735 14.8336 14.6594L16.1982 16.1215C16.2141 16.1067 16.226 16.0946 16.23 16.0905C16.2311 16.0894 16.232 16.0885 16.2323 16.0882C16.233 16.0874 16.2323 16.0882 16.2322 16.0882C16.2316 16.0889 16.2288 16.0918 16.2251 16.0955L14.8109 14.6812Z" fill="url(#paint3_linear)" mask="url(#path-2-inside-1)"/>
<mask id="path-4-inside-2" fill="white">
<path d="M12.1106 5.55956V6.54925C14.5663 6.54925 16.5642 8.54714 16.5642 11.0029H17.5539C17.5539 8.00143 15.112 5.55956 12.1106 5.55956Z"/>
</mask>
<path d="M12.1106 5.55956V6.54925C14.5663 6.54925 16.5642 8.54714 16.5642 11.0029H17.5539C17.5539 8.00143 15.112 5.55956 12.1106 5.55956Z" fill="url(#paint4_linear)"/>
<path d="M12.1106 5.55956V4.55956H11.1106V5.55956H12.1106ZM12.1106 6.54925H11.1106V7.54925H12.1106V6.54925ZM16.5642 11.0029H15.5642V12.0029H16.5642V11.0029ZM17.5539 11.0029V12.0029H18.5539V11.0029H17.5539ZM11.1106 5.55956V6.54925H13.1106V5.55956H11.1106ZM12.1106 7.54925C14.014 7.54925 15.5642 9.09943 15.5642 11.0029H17.5642C17.5642 7.99486 15.1186 5.54925 12.1106 5.54925V7.54925ZM16.5642 12.0029H17.5539V10.0029H16.5642V12.0029ZM18.5539 11.0029C18.5539 7.44914 15.6643 4.55956 12.1106 4.55956V6.55956C14.5597 6.55956 16.5539 8.55371 16.5539 11.0029H18.5539Z" fill="url(#paint5_linear)" mask="url(#path-4-inside-2)"/>
<mask id="path-6-inside-3" fill="white">
<path d="M14.3865 11H15.3762C15.3762 9.22642 13.9332 7.7835 12.1597 7.7835V8.7732C13.3876 8.7732 14.3865 9.77214 14.3865 11Z"/>
</mask>
<path d="M14.3865 11H15.3762C15.3762 9.22642 13.9332 7.7835 12.1597 7.7835V8.7732C13.3876 8.7732 14.3865 9.77214 14.3865 11Z" fill="url(#paint6_linear)"/>
<path d="M14.3865 11H13.3865V12H14.3865V11ZM15.3762 11V12H16.3762V11H15.3762ZM12.1597 7.7835V6.7835H11.1597V7.7835H12.1597ZM12.1597 8.7732H11.1597V9.7732H12.1597V8.7732ZM14.3865 12H15.3762V10H14.3865V12ZM16.3762 11C16.3762 8.67414 14.4855 6.7835 12.1597 6.7835V8.7835C13.381 8.7835 14.3762 9.77871 14.3762 11H16.3762ZM11.1597 7.7835V8.7732H13.1597V7.7835H11.1597ZM12.1597 9.7732C12.8353 9.7732 13.3865 10.3244 13.3865 11H15.3865C15.3865 9.21987 13.9399 7.7732 12.1597 7.7732V9.7732Z" fill="url(#paint7_linear)" mask="url(#path-6-inside-3)"/>
<mask id="path-8-inside-4" fill="white">
<path d="M12.2061 3.3299V4.31959C15.8897 4.31959 18.8865 7.31642 18.8865 11H19.8762C19.8762 6.7707 16.4355 3.3299 12.2061 3.3299Z"/>
</mask>
<path d="M12.2061 3.3299V4.31959C15.8897 4.31959 18.8865 7.31642 18.8865 11H19.8762C19.8762 6.7707 16.4355 3.3299 12.2061 3.3299Z" fill="url(#paint8_linear)"/>
<path d="M12.2061 3.3299V2.3299H11.2061V3.3299H12.2061ZM12.2061 4.31959H11.2061V5.31959H12.2061V4.31959ZM18.8865 11H17.8865V12H18.8865V11ZM19.8762 11V12H20.8762V11H19.8762ZM11.2061 3.3299V4.31959H13.2061V3.3299H11.2061ZM12.2061 5.31959C15.3375 5.31959 17.8865 7.8687 17.8865 11H19.8865C19.8865 6.76414 16.442 3.31959 12.2061 3.31959V5.31959ZM18.8865 12H19.8762V10H18.8865V12ZM20.8762 11C20.8762 6.21842 16.9877 2.3299 12.2061 2.3299V4.3299C15.8832 4.3299 18.8762 7.32298 18.8762 11H20.8762Z" fill="url(#paint9_linear)" mask="url(#path-8-inside-4)"/>
<defs>
<linearGradient id="paint0_linear" x1="1" y1="13" x2="25" y2="13" gradientUnits="userSpaceOnUse">
<stop stop-color="#667DB6"/>
<stop offset="0.338542" stop-color="#0082C8"/>
<stop offset="0.708333" stop-color="#0082C8"/>
<stop offset="1" stop-color="#667DB6"/>
</linearGradient>
<linearGradient id="paint1_linear" x1="1" y1="13" x2="25" y2="13" gradientUnits="userSpaceOnUse">
<stop stop-color="#667DB6"/>
<stop offset="0.338542" stop-color="#0082C8"/>
<stop offset="0.708333" stop-color="#0082C8"/>
<stop offset="1" stop-color="#667DB6"/>
</linearGradient>
<linearGradient id="paint2_linear" x1="4" y1="12.253" x2="16.5098" y2="12.253" gradientUnits="userSpaceOnUse">
<stop stop-color="#667DB6"/>
<stop offset="0.338542" stop-color="#0082C8"/>
<stop offset="0.708333" stop-color="#0082C8"/>
<stop offset="1" stop-color="#667DB6"/>
</linearGradient>
<linearGradient id="paint3_linear" x1="4" y1="12.253" x2="16.5098" y2="12.253" gradientUnits="userSpaceOnUse">
<stop stop-color="#667DB6"/>
<stop offset="0.338542" stop-color="#0082C8"/>
<stop offset="0.708333" stop-color="#0082C8"/>
<stop offset="1" stop-color="#667DB6"/>
</linearGradient>
<linearGradient id="paint4_linear" x1="12.1106" y1="8.28121" x2="17.5539" y2="8.28121" gradientUnits="userSpaceOnUse">
<stop stop-color="#667DB6"/>
<stop offset="0.338542" stop-color="#0082C8"/>
<stop offset="0.708333" stop-color="#0082C8"/>
<stop offset="1" stop-color="#667DB6"/>
</linearGradient>
<linearGradient id="paint5_linear" x1="12.1106" y1="8.28121" x2="17.5539" y2="8.28121" gradientUnits="userSpaceOnUse">
<stop stop-color="#667DB6"/>
<stop offset="0.338542" stop-color="#0082C8"/>
<stop offset="0.708333" stop-color="#0082C8"/>
<stop offset="1" stop-color="#667DB6"/>
</linearGradient>
<linearGradient id="paint6_linear" x1="12.1597" y1="9.39175" x2="15.3762" y2="9.39175" gradientUnits="userSpaceOnUse">
<stop stop-color="#667DB6"/>
<stop offset="0.338542" stop-color="#0082C8"/>
<stop offset="0.708333" stop-color="#0082C8"/>
<stop offset="1" stop-color="#667DB6"/>
</linearGradient>
<linearGradient id="paint7_linear" x1="12.1597" y1="9.39175" x2="15.3762" y2="9.39175" gradientUnits="userSpaceOnUse">
<stop stop-color="#667DB6"/>
<stop offset="0.338542" stop-color="#0082C8"/>
<stop offset="0.708333" stop-color="#0082C8"/>
<stop offset="1" stop-color="#667DB6"/>
</linearGradient>
<linearGradient id="paint8_linear" x1="12.2061" y1="7.16495" x2="19.8762" y2="7.16495" gradientUnits="userSpaceOnUse">
<stop stop-color="#667DB6"/>
<stop offset="0.338542" stop-color="#0082C8"/>
<stop offset="0.708333" stop-color="#0082C8"/>
<stop offset="1" stop-color="#667DB6"/>
</linearGradient>
<linearGradient id="paint9_linear" x1="12.2061" y1="7.16495" x2="19.8762" y2="7.16495" gradientUnits="userSpaceOnUse">
<stop stop-color="#667DB6"/>
<stop offset="0.338542" stop-color="#0082C8"/>
<stop offset="0.708333" stop-color="#0082C8"/>
<stop offset="1" stop-color="#667DB6"/>
</linearGradient>
</defs>
</svg>
