<svg width="26" height="26" viewBox="0 0 26 26" fill="none" xmlns="http://www.w3.org/2000/svg">
<path d="M6.80463 23.2874C8.65894 24.4033 10.7791 24.9914 12.9575 24.9914C19.5587 24.9914 25 19.6048 25 12.9956C25 6.3941 19.5663 1 12.9575 1C6.36884 1 1.00861 6.38129 1.00861 12.9956C1.00861 15.2031 1.59692 17.3394 2.71259 19.1952L1 25L6.80463 23.2874ZM2.41449 12.9956C2.41449 7.15637 7.1441 2.4057 12.9575 2.4057C18.8226 2.4057 23.5943 7.15637 23.5943 12.9956C23.5943 18.835 18.8226 23.5855 12.9575 23.5855C10.9393 23.5855 8.97809 23.0139 7.28638 21.9321L7.01611 21.7594L3.07916 22.921L4.2406 18.9839L4.06793 18.7138C2.98615 17.0217 2.41449 15.0446 2.41449 12.9956Z" fill="url(#paint0_linear)" stroke="url(#paint1_linear)"/>
<path d="M6.84211 10.7853C7.07428 12.0046 7.76349 14.3499 9.77015 16.3565C11.7768 18.3632 14.122 19.0526 15.3415 19.2847C16.7379 19.5506 18.787 19.5907 19.7884 18.5893L20.3467 18.031C20.6285 17.7492 20.7838 17.3744 20.7838 16.9758C20.7838 16.5771 20.6285 16.2025 20.3467 15.9207L18.1141 13.6881C17.8321 13.4061 17.4575 13.251 17.0588 13.251C16.6602 13.251 16.2856 13.4061 16.0036 13.6881L15.4455 14.2462C15.1046 14.5872 14.4609 14.5886 14.1174 14.2504L11.8905 11.9301C11.8872 11.9266 11.8839 11.9232 11.8804 11.9199C11.5389 11.5784 11.5389 11.0226 11.8804 10.6812L12.4385 10.123C13.0219 9.53967 13.0219 8.59576 12.4385 8.01257L10.2059 5.77997C9.62421 5.19824 8.67756 5.19824 8.09565 5.77997L7.53754 6.33826V6.33807C6.73829 7.13751 6.47187 8.84149 6.84211 10.7853ZM8.53162 7.33234C9.11756 6.75977 9.08625 6.74878 9.15088 6.74878C9.17304 6.74878 9.19519 6.7572 9.21204 6.77405C11.5646 9.13922 11.4701 9.00024 11.4701 9.06799C11.4701 9.09161 11.4615 9.1123 11.4448 9.12915L10.8865 9.68726C9.99756 10.5762 9.99408 12.0153 10.8809 12.9083L13.1091 15.23C13.1126 15.2333 13.1158 15.2368 13.1193 15.2403C14.0081 16.1291 15.5479 16.132 16.4396 15.2403L16.9977 14.6822C17.0314 14.6485 17.0863 14.6485 17.12 14.6822C19.4725 17.0472 19.3781 16.9082 19.3781 16.976C19.3781 16.9998 19.3695 17.0203 19.3528 17.0371L18.7945 17.5952C18.412 17.9777 17.1936 18.2066 15.6044 17.9039C14.5439 17.7018 12.5046 17.103 10.7642 15.3626C9.02381 13.6222 8.42505 11.5829 8.22309 10.5224C7.92023 8.93323 8.14911 7.71466 8.53162 7.33234Z" fill="url(#paint2_linear)"/>
<defs>
<linearGradient id="paint0_linear" x1="1" y1="13" x2="25" y2="13" gradientUnits="userSpaceOnUse">
<stop stop-color="#667DB6"/>
<stop offset="0.338542" stop-color="#0082C8"/>
<stop offset="0.708333" stop-color="#0082C8"/>
<stop offset="1" stop-color="#667DB6"/>
</linearGradient>
<linearGradient id="paint1_linear" x1="1" y1="13" x2="25" y2="13" gradientUnits="userSpaceOnUse">
<stop stop-color="#667DB6"/>
<stop offset="0.338542" stop-color="#0082C8"/>
<stop offset="0.708333" stop-color="#0082C8"/>
<stop offset="1" stop-color="#667DB6"/>
</linearGradient>
<linearGradient id="paint2_linear" x1="6.67798" y1="12.3949" x2="20.7838" y2="12.3949" gradientUnits="userSpaceOnUse">
<stop stop-color="#667DB6"/>
<stop offset="0.338542" stop-color="#0082C8"/>
<stop offset="0.708333" stop-color="#0082C8"/>
<stop offset="1" stop-color="#667DB6"/>
</linearGradient>
</defs>
</svg>
